<svg width="24" height="25" viewBox="0 0 24 25" fill="none" xmlns="http://www.w3.org/2000/svg">
<path d="M12 6.93335C12 6.93335 16.803 6.93387 18.001 7.26343C18.6618 7.44476 19.1827 7.97851 19.3594 8.65698C19.6779 9.87728 19.6806 12.4134 19.6807 12.4529C19.6807 12.4529 19.6804 15.0198 19.3594 16.2498C19.1827 16.9282 18.6618 17.4629 18.001 17.6443C16.8026 17.9737 12 17.9734 12 17.9734C11.9556 17.9734 7.19125 17.9723 5.99902 17.6443C5.33829 17.4628 4.81834 16.9281 4.6416 16.2498C4.3207 15.0198 4.32031 12.4529 4.32031 12.4529C4.32033 12.4134 4.3232 9.87728 4.6416 8.65698C4.8183 7.97868 5.33839 7.44485 5.99902 7.26343C7.19125 6.93537 11.9556 6.93336 12 6.93335ZM10.5605 15.0935L14.4004 12.6941L10.5605 10.2937V15.0935Z" fill="currentColor"/>
</svg>
