<svg width="24" height="25" viewBox="0 0 24 25" fill="none" xmlns="http://www.w3.org/2000/svg">
<path d="M4.02196 11.9785C5.70531 11.0513 7.58439 10.2774 9.34011 9.49956C12.3606 8.22552 15.3932 6.97356 18.4563 5.808C19.0523 5.6094 20.1231 5.41518 20.2281 6.29838C20.1706 7.54854 19.9341 8.79138 19.7718 10.0342C19.3601 12.7673 18.8841 15.4911 18.42 18.2152C18.2601 19.1226 17.1234 19.5923 16.3961 19.0117C14.6482 17.831 12.8868 16.6618 11.1612 15.4538C10.596 14.8794 11.1201 14.0546 11.625 13.6444C13.0646 12.2257 14.5914 11.0203 15.9558 9.52818C16.3238 8.6394 15.2364 9.38844 14.8777 9.61794C12.9068 10.9761 10.9842 12.4172 8.90625 13.6108C7.84485 14.1951 6.60777 13.6958 5.54685 13.3697C4.5956 12.9759 3.20166 12.5791 4.02186 11.9786L4.02196 11.9785Z" fill="currentColor" />
</svg>
