<svg width="24" height="25" viewBox="0 0 24 25" fill="none" xmlns="http://www.w3.org/2000/svg">
<path d="M13.921 16.4781L16.5744 19.0397C17.118 19.5633 17.118 20.4137 16.5744 20.9379C16.0314 21.4621 15.1513 21.4621 14.6088 20.9379L12 18.4207L9.39338 20.9379C9.12159 21.1997 8.76545 21.3307 8.4093 21.3307C8.05373 21.3307 7.69816 21.1997 7.42637 20.9379C6.88335 20.4137 6.88335 19.5639 7.4258 19.0397L10.0795 16.4781C9.11335 16.2656 8.18153 15.8961 7.32327 15.3763C6.67376 14.981 6.47865 14.1528 6.8879 13.5253C7.29601 12.8969 8.15427 12.7078 8.80492 13.1031C10.7481 14.283 13.2513 14.2833 15.1956 13.1031C15.8462 12.7078 16.7042 12.8969 17.1132 13.5253C17.5224 14.1522 17.3267 14.981 16.6772 15.3763C15.819 15.8966 14.8871 16.2656 13.921 16.4781Z" fill="currentColor" />
<path d="M11.9883 3.57574C14.6065 3.57574 16.7353 5.63099 16.7354 8.15778C16.7354 10.6838 14.6065 12.7388 11.9883 12.7388C9.37083 12.7386 7.24219 10.6836 7.24219 8.15778C7.24221 5.63114 9.37084 3.57599 11.9883 3.57574ZM11.9883 6.26031C10.9055 6.26052 10.0234 7.11176 10.0234 8.15778C10.0237 9.20276 10.9057 10.0541 11.9883 10.0543C13.0719 10.0543 13.9538 9.20289 13.9541 8.15778C13.9541 7.11164 13.072 6.26031 11.9883 6.26031Z" fill="currentColor" />
</svg>
