<svg width="24" height="25" viewBox="0 0 24 25" fill="none" xmlns="http://www.w3.org/2000/svg">
<path fill-rule="evenodd" clip-rule="evenodd" d="M20.9201 8.11286C21.0589 7.71829 20.9201 7.43131 20.3055 7.43131H18.2634C17.748 7.43131 17.51 7.68239 17.3713 7.95148C17.3713 7.95148 16.3205 10.2473 14.8534 11.7359C14.3775 12.1664 14.1595 12.3099 13.9018 12.3099C13.7629 12.3099 13.5845 12.1664 13.5845 11.7718V8.09491C13.5845 7.6286 13.4259 7.41336 12.9897 7.41336H9.77795C9.46073 7.41336 9.2625 7.6286 9.2625 7.84383C9.2625 8.29225 9.99603 8.39984 10.0753 9.65536V12.3816C10.0753 12.9735 9.9564 13.0811 9.69865 13.0811C9.00474 13.0811 7.31956 10.7674 6.30843 8.13081C6.11014 7.61065 5.91191 7.41336 5.39645 7.41336H3.33452C2.73976 7.41336 2.64062 7.66449 2.64062 7.93353C2.64062 8.41779 3.33452 10.8571 5.87222 14.0855C7.55747 16.2916 9.9564 17.4754 12.1174 17.4754C13.4259 17.4754 13.5845 17.2064 13.5845 16.758V15.09C13.5845 14.5519 13.7035 14.4622 14.1198 14.4622C14.4172 14.4622 14.9525 14.6057 16.1619 15.6639C17.5497 16.9194 17.7876 17.4934 18.5608 17.4934H20.6029C21.1976 17.4934 21.4752 17.2243 21.3166 16.7042C21.1382 16.1841 20.4641 15.4308 19.5918 14.5339C19.1159 14.0318 18.4022 13.4757 18.1841 13.2067C17.8867 12.848 17.966 12.7045 18.1841 12.3816C18.1643 12.3816 20.6623 9.18904 20.9201 8.11286Z" fill="currentColor"/>
</svg>
